<svg width="647" height="605" viewBox="0 0 647 605" fill="none" xmlns="http://www.w3.org/2000/svg">
<path d="M387 119L435 38V119H387Z" fill="#D90782"/>
<path d="M251.624 179.809L285.187 78L308.966 163.943L251.624 179.809Z" fill="#3EBDC6"/>
<path d="M65 246L96 180V246H65Z" fill="#F1D87E"/>
<path d="M459.624 468.809L493.187 367L516.966 452.943L459.624 468.809Z" fill="#3EBDC6"/>
<path d="M273 522L298 469V522H273Z" fill="#F1D87E"/>
<path d="M245.063 482.222L188.853 450.505L244.911 450.238L245.063 482.222Z" fill="#D90782"/>
<path d="M494 344.93L583.159 301.985L537.057 372.916L494 344.93Z" fill="#5E2FA3"/>
<path d="M80.0001 356.888L169.159 313.943L123.057 384.874L80.0001 356.888Z" fill="#D90782"/>
<path d="M504.216 227.05L404.9 263.471L397.934 201.085L504.216 227.05Z" fill="#F1D87E"/>
<path d="M232.71 537.482L154.211 566.268L148.705 516.959L232.71 537.482Z" fill="#F1D87E"/>
</svg>
